<?xml version="1.0" encoding="UTF-8"?>
<!DOCTYPE svg PUBLIC "-//W3C//DTD SVG 1.1//EN" "http://www.w3.org/Graphics/SVG/1.1/DTD/svg11.dtd">
<svg xmlns="http://www.w3.org/2000/svg" version="1.1" width="671px" height="435px" style="shape-rendering:geometricPrecision; text-rendering:geometricPrecision; image-rendering:optimizeQuality; fill-rule:evenodd; clip-rule:evenodd" xmlns:xlink="http://www.w3.org/1999/xlink">
<g><path style="opacity:0.929" fill="#f6f6f5" d="M 357.5,81.5 C 356.528,80.2486 355.861,80.582 355.5,82.5C 355.543,83.4164 355.876,84.0831 356.5,84.5C 361.831,103.154 367.164,121.821 372.5,140.5C 372.192,141.308 371.692,141.975 371,142.5C 369.045,141.547 367.378,140.213 366,138.5C 354,123.833 342,109.167 330,94.5C 327.95,92.1122 325.616,90.1122 323,88.5C 307.871,103.296 293.038,118.463 278.5,134C 278.167,134.167 277.833,134.333 277.5,134.5C 276.369,132.926 276.202,131.259 277,129.5C 280.635,117.594 284.469,105.76 288.5,94C 288.167,93.5 287.833,93 287.5,92.5C 259.358,113.475 231.358,134.641 203.5,156C 201.431,157.874 199.098,158.874 196.5,159C 196.167,158.667 195.833,158.333 195.5,158C 234.116,116.595 272.616,75.0951 311,33.5C 317.376,26.7888 324.043,20.4554 331,14.5C 334.286,16.7822 337.286,19.4489 340,22.5C 380.3,66.4677 420.966,110.134 462,153.5C 462.483,154.448 462.649,155.448 462.5,156.5C 457.453,154.809 452.787,152.309 448.5,149C 418.007,126.668 387.674,104.168 357.5,81.5 Z"/></g>
<g><path style="opacity:0.892" fill="#f5f5f4" d="M 172.5,111.5 C 173.404,110.791 173.737,109.791 173.5,108.5C 172.209,108.263 171.209,108.596 170.5,109.5C 148.76,125.066 127.426,141.233 106.5,158C 104.431,159.874 102.098,160.874 99.5,161C 99.1667,160.667 98.8333,160.333 98.5,160C 129.525,127.309 160.858,94.976 192.5,63C 194.464,62.376 196.131,62.876 197.5,64.5C 208.817,76.9839 220.317,89.3173 232,101.5C 232.667,102.5 232.667,103.5 232,104.5C 227.2,110.302 222.033,115.802 216.5,121C 215.167,121.667 213.833,121.667 212.5,121C 208.167,116.667 203.833,112.333 199.5,108C 197.833,107.333 196.167,107.333 194.5,108C 184.944,118.219 175.444,128.386 166,138.5C 165.13,137.892 164.63,137.059 164.5,136C 167.273,127.847 169.94,119.68 172.5,111.5 Z"/></g>
<g><path style="opacity:0.924" fill="#f6f6f4" d="M 489.5,108.5 C 489.44,107.957 489.107,107.624 488.5,107.5C 487.227,108.257 487.227,108.923 488.5,109.5C 490.892,118.675 493.892,127.675 497.5,136.5C 497.192,137.308 496.692,137.975 496,138.5C 485.167,129 475,118.833 465.5,108C 464.167,107.333 462.833,107.333 461.5,108C 457.167,112.333 452.833,116.667 448.5,121C 447.5,121.667 446.5,121.667 445.5,121C 439.707,115.372 434.04,109.539 428.5,103.5C 440.28,89.5506 452.613,76.0506 465.5,63C 466.833,62.3333 468.167,62.3333 469.5,63C 499.303,94.4706 529.47,125.637 560,156.5C 561.401,158.146 561.568,159.813 560.5,161.5C 536.982,143.581 513.316,125.914 489.5,108.5 Z"/></g>
<g><path style="opacity:0.007" fill="#000000" d="M 357.5,81.5 C 356.596,82.209 356.263,83.209 356.5,84.5C 355.876,84.0831 355.543,83.4164 355.5,82.5C 355.861,80.582 356.528,80.2486 357.5,81.5 Z"/></g>
<g><path style="opacity:0.009" fill="#000000" d="M 489.5,108.5 C 488.833,108.5 488.5,108.833 488.5,109.5C 487.227,108.923 487.227,108.257 488.5,107.5C 489.107,107.624 489.44,107.957 489.5,108.5 Z"/></g>
<g><path style="opacity:0.009" fill="#000000" d="M 170.5,109.5 C 171.209,108.596 172.209,108.263 173.5,108.5C 173.737,109.791 173.404,110.791 172.5,111.5C 172.5,110.167 171.833,109.5 170.5,109.5 Z"/></g>
<g><path style="opacity:0.872" fill="#f5f5f4" d="M 409.5,158.5 C 422.274,158.495 434.941,159.661 447.5,162C 469.945,167.926 492.279,174.259 514.5,181C 546.24,190.675 578.24,191.842 610.5,184.5C 612.569,184.824 612.902,185.658 611.5,187C 598.931,193.477 585.598,197.477 571.5,199C 556.467,199.855 541.467,199.522 526.5,198C 502.28,193.278 478.28,187.612 454.5,181C 432.157,176.379 409.824,176.379 387.5,181C 366.833,187 346.167,193 325.5,199C 302.025,204.824 278.359,205.824 254.5,202C 231.034,197.64 207.701,192.64 184.5,187C 137.739,176.68 92.9061,182.18 50,203.5C 49.5,203.167 49,202.833 48.5,202.5C 85.7275,174.19 127.727,163.023 174.5,169C 198.887,172.676 223.22,176.676 247.5,181C 270.889,184.522 294.222,184.188 317.5,180C 338.994,174.947 360.327,169.28 381.5,163C 390.94,161.249 400.273,159.749 409.5,158.5 Z"/></g>
<g><path style="opacity:0.891" fill="#f5f4f3" d="M 13.5,232.5 C 19.4254,232.192 25.2588,232.525 31,233.5C 31.3007,243.52 31.8007,253.52 32.5,263.5C 42.1667,263.5 51.8333,263.5 61.5,263.5C 61.2396,253.128 61.5729,242.794 62.5,232.5C 68.4254,232.192 74.2588,232.525 80,233.5C 80.1903,258.02 80.6903,282.52 81.5,307C 81.3552,308.226 81.0219,309.393 80.5,310.5C 74.8625,311.663 69.1959,311.83 63.5,311C 63,310.5 62.5,310 62,309.5C 61.5002,299.506 61.3335,289.506 61.5,279.5C 51.4944,279.334 41.4944,279.5 31.5,280C 31.8333,280.333 32.1667,280.667 32.5,281C 31.8449,290.773 31.1782,300.607 30.5,310.5C 24.7709,311.947 19.1042,311.781 13.5,310C 12.1711,284.167 12.1711,258.333 13.5,232.5 Z"/></g>
<g><path style="opacity:0.979" fill="#e9e8e8" d="M 94.5,232.5 C 100.5,232.5 106.5,232.5 112.5,232.5C 113.261,258.17 113.427,284.17 113,310.5C 107.558,311.714 102.058,311.714 96.5,310.5C 95.0055,310.291 93.8388,309.624 93,308.5C 92.7908,283.124 93.2908,257.791 94.5,232.5 Z"/></g>
<g><path style="opacity:0.916" fill="#f3f2f2" d="M 194.5,269.5 C 194.214,267.067 193.548,267.067 192.5,269.5C 187.069,282.701 181.902,296.034 177,309.5C 172.16,312.127 167.327,312.127 162.5,309.5C 156.819,296.807 151.152,284.141 145.5,271.5C 144.012,268.814 143.345,269.147 143.5,272.5C 143.179,284.081 143.512,295.581 144.5,307C 143.809,308.067 143.309,309.234 143,310.5C 137.211,311.721 131.378,311.721 125.5,310.5C 125.172,284.592 125.505,258.759 126.5,233C 133.747,232.188 140.914,232.354 148,233.5C 153.194,244.75 158.194,256.084 163,267.5C 164.829,271.828 167.162,275.828 170,279.5C 176.262,263.699 183.096,248.199 190.5,233C 197.826,232.5 205.159,232.334 212.5,232.5C 213.473,258.468 213.806,284.468 213.5,310.5C 207.242,310.81 201.076,310.476 195,309.5C 194.5,296.171 194.333,282.837 194.5,269.5 Z"/></g>
<g><path style="opacity:0.862" fill="#f3f2f2" d="M 249.5,232.5 C 256.422,232.188 263.256,232.521 270,233.5C 280.059,258.284 289.559,283.284 298.5,308.5C 298.392,309.442 298.059,310.275 297.5,311C 292.167,311.667 286.833,311.667 281.5,311C 278.53,306.219 276.196,301.052 274.5,295.5C 264.5,294.167 254.5,294.167 244.5,295.5C 242.64,300.928 240.306,306.095 237.5,311C 232.167,311.667 226.833,311.667 221.5,311C 220.833,310.333 220.167,309.667 219.5,309C 229.601,283.528 239.601,258.028 249.5,232.5 Z M 267.5,277.5 C 265.833,278.167 264.167,278.833 262.5,279.5C 258.865,278.886 255.198,278.552 251.5,278.5C 252.611,270.824 255.278,263.824 259.5,257.5C 263.275,263.717 265.941,270.384 267.5,277.5 Z"/></g>
<g><path style="opacity:0.854" fill="#f4f3f3" d="M 306.5,232.5 C 312.631,231.908 318.464,232.575 324,234.5C 324.5,254.497 324.667,274.497 324.5,294.5C 335.172,294.333 345.839,294.5 356.5,295C 358.414,299.858 359.081,305.025 358.5,310.5C 340.833,310.5 323.167,310.5 305.5,310.5C 305.176,284.426 305.51,258.426 306.5,232.5 Z"/></g>
<g><path style="opacity:0.931" fill="#f5f5f4" d="M 390.5,232.5 C 397.2,232.17 403.866,232.503 410.5,233.5C 420.757,258.27 430.423,283.27 439.5,308.5C 439.426,310.739 438.259,311.739 436,311.5C 431.227,311.244 426.394,311.078 421.5,311C 419.06,305.949 416.727,300.782 414.5,295.5C 404.856,294.502 395.19,294.168 385.5,294.5C 384.124,300.418 381.79,305.918 378.5,311C 373.167,311.667 367.833,311.667 362.5,311C 361.903,309.938 361.57,308.772 361.5,307.5C 370.57,282.292 380.237,257.292 390.5,232.5 Z M 398.5,258.5 C 399.5,258.5 400.5,258.5 401.5,258.5C 403.701,264.437 405.701,270.437 407.5,276.5C 406.494,276.938 406.494,277.604 407.5,278.5C 402.5,278.5 397.5,278.5 392.5,278.5C 393.895,271.65 395.895,264.983 398.5,258.5 Z"/></g>
<g><path style="opacity:0.9" fill="#f2f1f0" d="M 429.5,232.5 C 436.175,232.334 442.842,232.5 449.5,233C 454.941,242.923 460.941,252.423 467.5,261.5C 473.781,252.449 479.448,242.949 484.5,233C 491.082,232.19 497.582,232.357 504,233.5C 504.257,236.017 503.59,238.35 502,240.5C 493.667,254.5 485.333,268.5 477,282.5C 476.832,291.851 476.332,301.184 475.5,310.5C 469.799,311.582 464.132,311.249 458.5,309.5C 457.691,299.547 457.191,289.547 457,279.5C 448,265.5 439,251.5 430,237.5C 429.506,235.866 429.34,234.199 429.5,232.5 Z"/></g>
<g><path style="opacity:0.896" fill="#f6f5f5" d="M 628.5,274.5 C 629.988,277.186 630.655,276.853 630.5,273.5C 630.333,260.163 630.5,246.829 631,233.5C 636.75,232.359 642.584,232.193 648.5,233C 649.827,258.768 649.827,284.601 648.5,310.5C 642.798,311.895 637.131,311.729 631.5,310C 621.584,296.932 611.917,283.765 602.5,270.5C 600.717,266.94 599.717,266.94 599.5,270.5C 599.5,283.833 599.5,297.167 599.5,310.5C 593.281,311.329 587.114,310.995 581,309.5C 580.176,284.124 580.343,258.791 581.5,233.5C 583.341,232.77 585.175,232.103 587,231.5C 590.745,232.297 594.579,232.797 598.5,233C 608.363,247.015 618.363,260.848 628.5,274.5 Z"/></g>
<g><path style="opacity:0.917" fill="#f2f1f0" d="M 524.5,232.5 C 531.532,232.17 538.532,232.503 545.5,233.5C 555.098,257.794 564.598,282.127 574,306.5C 575.1,310.735 573.433,312.401 569,311.5C 564.448,311.161 559.948,310.494 555.5,309.5C 553.551,304.437 551.218,299.604 548.5,295C 539.167,294.333 529.833,294.333 520.5,295C 518.407,299.776 516.407,304.609 514.5,309.5C 508.289,311.767 501.955,312.1 495.5,310.5C 504.378,284.198 514.045,258.198 524.5,232.5 Z M 533.5,259.5 C 534.5,259.5 535.5,259.5 536.5,259.5C 539.3,265.724 541.3,271.891 542.5,278C 537.511,278.499 532.511,278.666 527.5,278.5C 528.7,271.902 530.7,265.569 533.5,259.5 Z"/></g>
<g><path style="opacity:0.011" fill="#000000" d="M 401.5,258.5 C 400.5,258.5 399.5,258.5 398.5,258.5C 399.5,255.833 400.5,255.833 401.5,258.5 Z"/></g>
<g><path style="opacity:0.009" fill="#000000" d="M 536.5,259.5 C 535.5,259.5 534.5,259.5 533.5,259.5C 534.26,257.015 535.26,257.015 536.5,259.5 Z"/></g>
<g><path style="opacity:0.009" fill="#000000" d="M 194.5,269.5 C 193.833,269.5 193.167,269.5 192.5,269.5C 193.548,267.067 194.214,267.067 194.5,269.5 Z"/></g>
<g><path style="opacity:0.008" fill="#000000" d="M 602.5,270.5 C 601.5,270.5 600.5,270.5 599.5,270.5C 599.717,266.94 600.717,266.94 602.5,270.5 Z"/></g>
<g><path style="opacity:0.008" fill="#000000" d="M 145.5,271.5 C 144.833,271.833 144.167,272.167 143.5,272.5C 143.345,269.147 144.012,268.814 145.5,271.5 Z"/></g>
<g><path style="opacity:0.008" fill="#000000" d="M 630.5,273.5 C 630.655,276.853 629.988,277.186 628.5,274.5C 629.167,274.167 629.833,273.833 630.5,273.5 Z"/></g>
<g><path style="opacity:0.009" fill="#000000" d="M 407.5,276.5 C 408.833,277.167 408.833,277.833 407.5,278.5C 406.494,277.604 406.494,276.938 407.5,276.5 Z"/></g>
<g><path style="opacity:0.005" fill="#000000" d="M 267.5,277.5 C 268.043,277.56 268.376,277.893 268.5,278.5C 266.604,279.466 264.604,279.799 262.5,279.5C 264.167,278.833 265.833,278.167 267.5,277.5 Z"/></g>
<g><path style="opacity:0.897" fill="#f3f3f2" d="M 496.5,414.5 C 496.332,411.949 495.332,411.282 493.5,412.5C 474.967,422.573 458.467,419.906 444,404.5C 432.717,386.493 432.717,368.493 444,350.5C 459.971,334.242 478.138,331.409 498.5,342C 503.054,345.887 506.887,350.387 510,355.5C 510.63,357.903 509.797,359.737 507.5,361C 503.109,363.769 498.442,364.602 493.5,363.5C 485.413,352.43 475.413,350.264 463.5,357C 456.972,362.057 453.972,368.724 454.5,377C 455.204,395.382 464.538,403.049 482.5,400C 484.996,398.92 487.33,397.586 489.5,396C 490.833,393.667 492.167,391.333 493.5,389C 488.019,387.551 482.352,387.051 476.5,387.5C 476.5,382.5 476.5,377.5 476.5,372.5C 488.411,371.976 500.244,371.976 512,372.5C 512.667,387.167 512.667,401.833 512,416.5C 507.252,417.635 502.419,417.802 497.5,417C 496.748,416.329 496.414,415.496 496.5,414.5 Z"/></g>
<g><path style="opacity:0.874" fill="#f0f0ef" d="M 151.5,337.5 C 156.897,337.215 162.23,337.549 167.5,338.5C 168.5,359.156 168.833,379.823 168.5,400.5C 180.462,401.438 192.462,401.772 204.5,401.5C 205.081,406.975 204.414,412.142 202.5,417C 185.5,417.667 168.5,417.667 151.5,417C 151,416.5 150.5,416 150,415.5C 149.333,390.5 149.333,365.5 150,340.5C 150.513,339.473 151.013,338.473 151.5,337.5 Z"/></g>
<g><path style="opacity:0.948" fill="#e4e4e4" d="M 214.5,337.5 C 219.511,337.334 224.511,337.501 229.5,338C 230.667,338.5 231.5,339.333 232,340.5C 232.667,365.167 232.667,389.833 232,414.5C 231.626,415.416 231.126,416.25 230.5,417C 225.167,417.667 219.833,417.667 214.5,417C 213.874,416.25 213.374,415.416 213,414.5C 212.333,390.167 212.333,365.833 213,341.5C 213.41,340.099 213.91,338.766 214.5,337.5 Z"/></g>
<g><path style="opacity:0.857" fill="#f2f1f1" d="M 240.5,337.5 C 246.839,337.058 253.006,337.725 259,339.5C 265.077,357.4 271.744,375.067 279,392.5C 285.853,374.945 292.52,357.278 299,339.5C 299.5,339 300,338.5 300.5,338C 306.204,337.313 311.87,337.479 317.5,338.5C 317.322,341.216 316.822,343.883 316,346.5C 307.47,368.422 299.137,390.422 291,412.5C 290.426,414.492 289.259,415.992 287.5,417C 281.833,417.667 276.167,417.667 270.5,417C 268.741,415.992 267.574,414.492 267,412.5C 257.537,388.612 248.371,364.612 239.5,340.5C 239.685,339.416 240.018,338.416 240.5,337.5 Z"/></g>
<g><path style="opacity:0.841" fill="#fbfbfa" d="M 327.5,337.5 C 333.093,337.193 338.593,337.527 344,338.5C 344.828,364.739 344.661,390.906 343.5,417C 338.167,417.667 332.833,417.667 327.5,417C 327,416.5 326.5,416 326,415.5C 325.833,402.667 325.667,389.833 325.5,377C 325.518,363.611 326.185,350.444 327.5,337.5 Z"/></g>
<g><path style="opacity:0.905" fill="#f7f7f6" d="M 404.5,379.5 C 404.369,380.239 404.536,380.906 405,381.5C 406.188,380.437 406.688,379.103 406.5,377.5C 406.333,365.162 406.5,352.829 407,340.5C 407.374,339.584 407.874,338.75 408.5,338C 414.084,337.194 419.584,337.361 425,338.5C 425.667,364.5 425.667,390.5 425,416.5C 419.584,417.639 414.084,417.806 408.5,417C 398.251,403.599 388.251,390.099 378.5,376.5C 378.25,375.078 377.417,374.078 376,373.5C 375.536,374.094 375.369,374.761 375.5,375.5C 375.667,389.171 375.5,402.837 375,416.5C 369.584,417.639 364.084,417.806 358.5,417C 357.061,391.244 356.561,365.411 357,339.5C 357.5,339 358,338.5 358.5,338C 363.833,337.333 369.167,337.333 374.5,338C 384.363,352.015 394.363,365.848 404.5,379.5 Z"/></g>
<g><path style="opacity:0.01" fill="#000000" d="M 378.5,376.5 C 377.391,376.443 376.391,376.11 375.5,375.5C 375.369,374.761 375.536,374.094 376,373.5C 377.417,374.078 378.25,375.078 378.5,376.5 Z"/></g>
<g><path style="opacity:0.008" fill="#000000" d="M 406.5,377.5 C 406.688,379.103 406.188,380.437 405,381.5C 404.536,380.906 404.369,380.239 404.5,379.5C 405.167,378.833 405.833,378.167 406.5,377.5 Z"/></g>
<g><path style="opacity:0.009" fill="#000000" d="M 493.5,412.5 C 495.332,411.282 496.332,411.949 496.5,414.5C 495.5,413.833 494.5,413.167 493.5,412.5 Z"/></g>
</svg>
